<svg width="353" height="112" viewBox="0 0 353 112" fill="none" xmlns="http://www.w3.org/2000/svg">
<path d="M116.272 71.294C114.116 71.294 112.184 70.944 110.476 70.244C108.768 69.544 107.396 68.508 106.36 67.136C105.352 65.764 104.82 64.112 104.764 62.18H112.408C112.52 63.272 112.898 64.112 113.542 64.7C114.186 65.26 115.026 65.54 116.062 65.54C117.126 65.54 117.966 65.302 118.582 64.826C119.198 64.322 119.506 63.636 119.506 62.768C119.506 62.04 119.254 61.438 118.75 60.962C118.274 60.486 117.672 60.094 116.944 59.786C116.244 59.478 115.236 59.128 113.92 58.736C112.016 58.148 110.462 57.56 109.258 56.972C108.054 56.384 107.018 55.516 106.15 54.368C105.282 53.22 104.848 51.722 104.848 49.874C104.848 47.13 105.842 44.988 107.83 43.448C109.818 41.88 112.408 41.096 115.6 41.096C118.848 41.096 121.466 41.88 123.454 43.448C125.442 44.988 126.506 47.144 126.646 49.916H118.876C118.82 48.964 118.47 48.222 117.826 47.69C117.182 47.13 116.356 46.85 115.348 46.85C114.48 46.85 113.78 47.088 113.248 47.564C112.716 48.012 112.45 48.67 112.45 49.538C112.45 50.49 112.898 51.232 113.794 51.764C114.69 52.296 116.09 52.87 117.994 53.486C119.898 54.13 121.438 54.746 122.614 55.334C123.818 55.922 124.854 56.776 125.722 57.896C126.59 59.016 127.024 60.458 127.024 62.222C127.024 63.902 126.59 65.428 125.722 66.8C124.882 68.172 123.65 69.264 122.026 70.076C120.402 70.888 118.484 71.294 116.272 71.294ZM152.024 51.008C152.024 52.716 151.632 54.284 150.848 55.712C150.064 57.112 148.86 58.246 147.236 59.114C145.612 59.982 143.596 60.416 141.188 60.416H136.736V71H129.554V41.516H141.188C143.54 41.516 145.528 41.922 147.152 42.734C148.776 43.546 149.994 44.666 150.806 46.094C151.618 47.522 152.024 49.16 152.024 51.008ZM140.642 54.704C142.014 54.704 143.036 54.382 143.708 53.738C144.38 53.094 144.716 52.184 144.716 51.008C144.716 49.832 144.38 48.922 143.708 48.278C143.036 47.634 142.014 47.312 140.642 47.312H136.736V54.704H140.642ZM161.055 41.516V71H153.873V41.516H161.055ZM181.464 71L171.552 57.98V71H164.37V41.516H171.552V54.452L181.38 41.516H189.822L178.398 55.964L190.242 71H181.464ZM198.947 47.27V53.234H208.565V58.778H198.947V65.246H209.825V71H191.765V41.516H209.825V47.27H198.947ZM219.779 41.516V71H212.597V41.516H219.779ZM249.47 71H242.288L230.276 52.814V71H223.094V41.516H230.276L242.288 59.786V41.516H249.47V71ZM279.162 71H271.98L259.968 52.814V71H252.786V41.516H259.968L271.98 59.786V41.516H279.162V71ZM296.422 71.294C293.65 71.294 291.102 70.65 288.778 69.362C286.482 68.074 284.648 66.282 283.276 63.986C281.932 61.662 281.26 59.058 281.26 56.174C281.26 53.29 281.932 50.7 283.276 48.404C284.648 46.108 286.482 44.316 288.778 43.028C291.102 41.74 293.65 41.096 296.422 41.096C299.194 41.096 301.728 41.74 304.024 43.028C306.348 44.316 308.168 46.108 309.484 48.404C310.828 50.7 311.5 53.29 311.5 56.174C311.5 59.058 310.828 61.662 309.484 63.986C308.14 66.282 306.32 68.074 304.024 69.362C301.728 70.65 299.194 71.294 296.422 71.294ZM296.422 64.742C298.774 64.742 300.65 63.958 302.05 62.39C303.478 60.822 304.192 58.75 304.192 56.174C304.192 53.57 303.478 51.498 302.05 49.958C300.65 48.39 298.774 47.606 296.422 47.606C294.042 47.606 292.138 48.376 290.71 49.916C289.31 51.456 288.61 53.542 288.61 56.174C288.61 58.778 289.31 60.864 290.71 62.432C292.138 63.972 294.042 64.742 296.422 64.742ZM316.966 71.336C315.706 71.336 314.67 70.972 313.858 70.244C313.074 69.488 312.682 68.564 312.682 67.472C312.682 66.352 313.074 65.414 313.858 64.658C314.67 63.902 315.706 63.524 316.966 63.524C318.198 63.524 319.206 63.902 319.99 64.658C320.802 65.414 321.208 66.352 321.208 67.472C321.208 68.564 320.802 69.488 319.99 70.244C319.206 70.972 318.198 71.336 316.966 71.336Z" fill="white"/>
<circle cx="55" cy="53" r="32" fill="white"/>
<path d="M55 28.625C49.1988 28.625 44.7025 37.2087 43.8963 49.1337C44.9369 50.24 46.1594 51.3369 47.515 52.4075C47.53 51.1625 47.6031 49.9756 47.7044 48.8112C48.8578 47.9997 50.0405 47.2304 51.25 46.505C56.2375 43.625 61.3713 41.7275 65.7006 41.165C66.4876 41.0607 67.2805 41.0069 68.0744 41.0038C70.5063 41.0038 72.2275 41.5887 72.8631 42.6875C73.435 43.6831 73.1781 45.2656 72.22 47.1181C73.2006 48.0275 74.1325 48.95 74.9575 49.88C77.0688 46.3869 77.5 43.2125 76.1106 40.8125C74.455 37.9494 70.5944 36.7475 65.2263 37.4431C60.415 38.0656 54.79 40.1319 49.3769 43.2594C49.0319 43.4563 48.7113 43.6756 48.3738 43.8894C49.72 36.95 52.4594 32.375 55 32.375C56.1869 32.375 57.4188 33.3875 58.5306 35.1444C59.7669 34.7535 61.0208 34.4206 62.2881 34.1469C60.3475 30.6688 57.8256 28.625 55 28.625ZM42.2856 37.2744C38.2188 37.2012 35.275 38.4181 33.8913 40.8125C32.3838 43.4187 33.0119 46.9212 35.605 50.7669C35.8394 51.125 36.0963 51.5056 36.4188 51.9237C39.3625 55.775 43.9619 59.6131 49.375 62.7425C49.72 62.9394 50.0781 63.1156 50.4306 63.3125C48.2838 64.0531 46.2044 64.5875 44.2919 64.8369C40.6356 65.3112 37.9638 64.7413 37.1444 63.3125C36.565 62.3169 36.8219 60.7344 37.7819 58.8819C36.8263 58.0045 35.9098 57.0855 35.035 56.1275C32.9313 59.615 32.5 62.7838 33.8913 65.1875C35.2394 67.5238 38.0519 68.7538 41.9481 68.7538C42.835 68.7538 43.7856 68.6881 44.7756 68.5569C45.3475 68.4819 45.9194 68.3881 46.5044 68.2719L46.915 68.1837C46.9431 68.1837 46.9656 68.1763 46.9938 68.1688C47.9913 67.9569 49.09 67.6625 50.35 67.2688L51.5875 66.8863C53.425 66.2563 55.3075 65.4725 57.19 64.5575C57.6006 63.1944 57.9663 61.6063 58.2438 59.7763C57.16 60.3819 56.0688 60.9312 54.985 61.445C53.7116 60.8508 52.4654 60.2002 51.25 59.495C46.255 56.6113 42.0438 53.1181 39.4 49.6512C37.1575 46.715 36.3156 44.1163 37.1444 42.6875C37.7069 41.7069 39.2013 41.15 41.26 41.0469C41.5525 39.7212 41.89 38.4612 42.2856 37.2744ZM63.8913 45.3087C62.4119 45.6537 60.8444 46.16 59.2413 46.7956C60.3025 47.4256 61.3131 48.1006 62.2956 48.7738C62.4119 50.1369 62.5 51.5281 62.5 53C62.5 64.0587 59.0219 72.4963 55.675 73.5144C55.4463 73.5894 55.2119 73.625 55 73.625C53.8131 73.625 52.5813 72.6219 51.4694 70.85C50.1944 71.2513 48.9363 71.5963 47.7119 71.8531C49.6525 75.3313 52.1744 77.375 55 77.375C55.375 77.375 55.7313 77.3375 56.0838 77.2644C61.9506 76.1525 66.25 66.1025 66.25 53C66.25 52.5969 66.22 52.2087 66.2125 51.8056C67.9281 53.2925 69.4375 54.8244 70.6075 56.3469C72.8425 59.285 73.6825 61.8837 72.8631 63.3125C72.2856 64.3006 70.8138 64.8725 68.74 64.9756C68.4655 66.2448 68.1257 67.499 67.7219 68.7331C67.825 68.7331 67.9488 68.7538 68.0519 68.7538C71.9481 68.7538 74.7606 67.5238 76.1088 65.1875C77.7644 62.3244 76.87 58.3756 73.5813 54.0762C71.2525 51.0294 67.8756 47.9975 63.8913 45.3087ZM55 49.25C54.0055 49.25 53.0516 49.6451 52.3484 50.3484C51.6451 51.0516 51.25 52.0054 51.25 53C51.25 53.9946 51.6451 54.9484 52.3484 55.6516C53.0516 56.3549 54.0055 56.75 55 56.75C55.9946 56.75 56.9484 56.3549 57.6517 55.6516C58.3549 54.9484 58.75 53.9946 58.75 53C58.75 52.0054 58.3549 51.0516 57.6517 50.3484C56.9484 49.6451 55.9946 49.25 55 49.25Z" fill="#321C1D"/>
</svg>
