<svg width="1512" height="253" viewBox="0 0 1512 253" fill="none" xmlns="http://www.w3.org/2000/svg">
<path fill-rule="evenodd" clip-rule="evenodd" d="M0 0L25.2 23C50.4 46 100.8 92 151.2 103.5C201.6 115 252 92 302.4 71.3C352.8 50.6 403.2 32.2 453.6 43.7C504 55.2 554.4 96.6 604.8 110.4C655.2 124.2 705.6 110.4 756 108.1C806.4 105.8 856.8 115 907.2 110.4C957.6 105.8 1008 87.4 1058.4 69C1108.8 50.6 1159.2 32.2 1209.6 36.8C1260 41.4 1310.4 69 1360.8 69C1411.2 69 1461.6 41.4 1486.8 27.6L1512 13.8V138H1486.8C1461.6 138 1411.2 138 1360.8 138C1310.4 138 1260 138 1209.6 138C1159.2 138 1108.8 138 1058.4 138C1008 138 957.6 138 907.2 138C856.8 138 806.4 138 756 138C705.6 138 655.2 138 604.8 138C554.4 138 504 138 453.6 138C403.2 138 352.8 138 302.4 138C252 138 201.6 138 151.2 138C100.8 138 50.4 138 25.2 138H0V0Z" fill="white"/>
<rect y="128" width="1512" height="125" fill="white"/>
</svg>
