<svg width="64" height="64" viewBox="0 0 64 64" fill="none" xmlns="http://www.w3.org/2000/svg">
<path d="M59.9296 24H49.263C47.7902 24 46.5963 25.1939 46.5963 26.6667V37.3333C46.5963 38.8061 47.7902 40 49.263 40H59.9296C61.4024 40 62.5963 38.8061 62.5963 37.3333V26.6667C62.5963 25.1939 61.4024 24 59.9296 24Z" fill="#DAD7E5"/>
<path d="M62.5963 26.6667C62.5963 38.0667 62.463 37.3333 62.5963 37.3333C59.0601 37.3333 55.6687 35.9286 53.1682 33.4281C50.6678 30.9276 49.263 27.5362 49.263 24H59.9297C60.6369 24 61.3152 24.281 61.8153 24.781C62.3154 25.2811 62.5963 25.9594 62.5963 26.6667Z" fill="#EDEBF2"/>
<path d="M59.9296 1.33325H49.263C47.7902 1.33325 46.5963 2.52716 46.5963 3.99992V14.6666C46.5963 16.1393 47.7902 17.3333 49.263 17.3333H59.9296C61.4024 17.3333 62.5963 16.1393 62.5963 14.6666V3.99992C62.5963 2.52716 61.4024 1.33325 59.9296 1.33325Z" fill="#DAD7E5"/>
<path d="M62.5963 3.99992C62.5963 15.3999 62.463 14.6666 62.5963 14.6666C59.0601 14.6666 55.6687 13.2618 53.1682 10.7613C50.6678 8.26086 49.263 4.86947 49.263 1.33325H59.9297C60.6369 1.33325 61.3152 1.6142 61.8153 2.1143C62.3154 2.6144 62.5963 3.29267 62.5963 3.99992Z" fill="#EDEBF2"/>
<path d="M59.9296 46.6667H49.263C47.7902 46.6667 46.5963 47.8607 46.5963 49.3334V60.0001C46.5963 61.4728 47.7902 62.6667 49.263 62.6667H59.9296C61.4024 62.6667 62.5963 61.4728 62.5963 60.0001V49.3334C62.5963 47.8607 61.4024 46.6667 59.9296 46.6667Z" fill="#DAD7E5"/>
<path d="M62.5963 49.3334C62.5963 60.7334 62.463 60.0001 62.5963 60.0001C59.0601 60.0001 55.6687 58.5953 53.1682 56.0948C50.6678 53.5944 49.263 50.203 49.263 46.6667H59.9297C60.6369 46.6667 61.3152 46.9477 61.8153 47.4478C62.3154 47.9479 62.5963 48.6262 62.5963 49.3334Z" fill="#EDEBF2"/>
<path d="M30.5963 21.3333V42.6666L17.263 37.3333V26.6666L30.5963 21.3333Z" fill="#DAD7E5"/>
<path d="M30.5964 21.3333V38.9333L28.343 38.0399C25.8607 37.0408 23.7335 35.3227 22.2344 33.1062C20.7354 30.8897 19.9328 28.2758 19.9297 25.5999L30.5964 21.3333Z" fill="#EDEBF2"/>
<path d="M6.59631 26.6667H17.263V37.3334H6.59631V26.6667Z" fill="#DAD7E5"/>
<path d="M17.263 26.6667V34.6667C15.1413 34.6667 13.1064 33.8239 11.6061 32.3236C10.1059 30.8233 9.263 28.7885 9.263 26.6667H17.263Z" fill="#EDEBF2"/>
<path d="M6.59633 26.6667V37.3334C5.18185 37.3334 3.82529 36.7715 2.8251 35.7713C1.8249 34.7711 1.263 33.4146 1.263 32.0001C1.263 30.5856 1.8249 29.229 2.8251 28.2288C3.82529 27.2287 5.18185 26.6667 6.59633 26.6667Z" fill="#DB5669"/>
<path d="M6.59623 26.6667V34.4934C5.29265 34.155 4.16535 33.336 3.4407 32.2008C2.71605 31.0656 2.44771 29.6983 2.68956 28.3734C3.18836 27.8356 3.79276 27.4064 4.46495 27.1128C5.13714 26.8191 5.86269 26.6673 6.59623 26.6667Z" fill="#F26674"/>
<path d="M13.263 47.9999H7.92965C6.59631 37.2533 6.83631 39.1733 6.59631 37.3333H11.9296L13.263 47.9999Z" fill="#C6C3D8"/>
<path d="M11.7695 47.9998H7.92953L6.76953 38.6665C7.82672 38.6678 8.84718 39.0544 9.63989 39.7539C10.4326 40.4533 10.9432 41.4177 11.0762 42.4665L11.7695 47.9998Z" fill="#DAD7E5"/>
<path d="M59.9297 22.6665H49.263C48.2021 22.6665 47.1847 23.0879 46.4346 23.8381C45.6844 24.5882 45.263 25.6056 45.263 26.6665V37.3332C45.263 38.394 45.6844 39.4115 46.4346 40.1616C47.1847 40.9117 48.2021 41.3332 49.263 41.3332H59.9297C60.9905 41.3332 62.0079 40.9117 62.7581 40.1616C63.5082 39.4115 63.9297 38.394 63.9297 37.3332V26.6665C63.9297 25.6056 63.5082 24.5882 62.7581 23.8381C62.0079 23.0879 60.9905 22.6665 59.9297 22.6665ZM61.263 37.3332C61.263 37.6868 61.1225 38.0259 60.8725 38.276C60.6224 38.526 60.2833 38.6665 59.9297 38.6665H49.263C48.9094 38.6665 48.5702 38.526 48.3202 38.276C48.0701 38.0259 47.9297 37.6868 47.9297 37.3332V26.6665C47.9297 26.3129 48.0701 25.9737 48.3202 25.7237C48.5702 25.4736 48.9094 25.3332 49.263 25.3332H59.9297C60.2833 25.3332 60.6224 25.4736 60.8725 25.7237C61.1225 25.9737 61.263 26.3129 61.263 26.6665V37.3332Z" fill="#FD4A18"/>
<path d="M59.9297 0H49.263C48.2021 0 47.1847 0.421427 46.4346 1.17157C45.6844 1.92172 45.263 2.93913 45.263 4V14.6667C45.263 15.7275 45.6844 16.7449 46.4346 17.4951C47.1847 18.2452 48.2021 18.6667 49.263 18.6667H59.9297C60.9905 18.6667 62.0079 18.2452 62.7581 17.4951C63.5082 16.7449 63.9297 15.7275 63.9297 14.6667V4C63.9297 2.93913 63.5082 1.92172 62.7581 1.17157C62.0079 0.421427 60.9905 0 59.9297 0ZM61.263 14.6667C61.263 15.0203 61.1225 15.3594 60.8725 15.6095C60.6224 15.8595 60.2833 16 59.9297 16H49.263C48.9094 16 48.5702 15.8595 48.3202 15.6095C48.0701 15.3594 47.9297 15.0203 47.9297 14.6667V4C47.9297 3.64638 48.0701 3.30724 48.3202 3.05719C48.5702 2.80714 48.9094 2.66667 49.263 2.66667H59.9297C60.2833 2.66667 60.6224 2.80714 60.8725 3.05719C61.1225 3.30724 61.263 3.64638 61.263 4V14.6667Z" fill="#FD4A18"/>
<path d="M59.9297 45.3333H49.263C48.2021 45.3333 47.1847 45.7547 46.4346 46.5048C45.6844 47.255 45.263 48.2724 45.263 49.3333V59.9999C45.263 61.0608 45.6844 62.0782 46.4346 62.8283C47.1847 63.5785 48.2021 63.9999 49.263 63.9999H59.9297C60.9905 63.9999 62.0079 63.5785 62.7581 62.8283C63.5082 62.0782 63.9297 61.0608 63.9297 59.9999V49.3333C63.9297 48.2724 63.5082 47.255 62.7581 46.5048C62.0079 45.7547 60.9905 45.3333 59.9297 45.3333ZM61.263 59.9999C61.263 60.3535 61.1225 60.6927 60.8725 60.9427C60.6224 61.1928 60.2833 61.3332 59.9297 61.3332H49.263C48.9094 61.3332 48.5702 61.1928 48.3202 60.9427C48.0701 60.6927 47.9297 60.3535 47.9297 59.9999V49.3333C47.9297 48.9796 48.0701 48.6405 48.3202 48.3904C48.5702 48.1404 48.9094 47.9999 49.263 47.9999H59.9297C60.2833 47.9999 60.6224 48.1404 60.8725 48.3904C61.1225 48.6405 61.263 48.9796 61.263 49.3333V59.9999Z" fill="#FD4A18"/>
<path d="M54.5964 57.3333C56.0691 57.3333 57.263 56.1394 57.263 54.6667C57.263 53.1939 56.0691 52 54.5964 52C53.1236 52 51.9297 53.1939 51.9297 54.6667C51.9297 56.1394 53.1236 57.3333 54.5964 57.3333Z" fill="#FD4A18"/>
<path d="M56.5295 8.14662C53.6628 6.70662 53.3562 6.37328 52.5295 6.81328C51.7028 7.25328 51.9295 8.14662 51.9295 10.6666C51.9295 11.0202 52.07 11.3594 52.32 11.6094C52.5701 11.8595 52.9092 11.9999 53.2628 11.9999C53.6762 11.9999 53.5962 11.9999 56.5295 10.5199C56.7479 10.4081 56.9312 10.2381 57.0592 10.0287C57.1872 9.81931 57.2549 9.57868 57.2549 9.33328C57.2549 9.08789 57.1872 8.84725 57.0592 8.63788C56.9312 8.4285 56.7479 8.25851 56.5295 8.14662Z" fill="#FD4A18"/>
<path d="M55.9296 29.3334C56.2833 29.3334 56.6224 29.1929 56.8725 28.9429C57.1225 28.6928 57.263 28.3537 57.263 28.0001C57.263 27.6465 57.1225 27.3073 56.8725 27.0573C56.6224 26.8072 56.2833 26.6667 55.9296 26.6667C54.8688 26.6667 53.8514 27.0882 53.1012 27.8383C52.3511 28.5885 51.9296 29.6059 51.9296 30.6667C51.576 30.6667 51.2369 30.8072 50.9868 31.0573C50.7368 31.3073 50.5963 31.6465 50.5963 32.0001C50.5963 32.3537 50.7368 32.6928 50.9868 32.9429C51.2369 33.1929 51.576 33.3334 51.9296 33.3334V36.0001C51.9296 36.3537 52.0701 36.6928 52.3202 36.9429C52.5702 37.1929 52.9094 37.3334 53.263 37.3334C53.6166 37.3334 53.9557 37.1929 54.2058 36.9429C54.4558 36.6928 54.5963 36.3537 54.5963 36.0001V33.3334H55.9296C56.2833 33.3334 56.6224 33.1929 56.8725 32.9429C57.1225 32.6928 57.263 32.3537 57.263 32.0001C57.263 31.6465 57.1225 31.3073 56.8725 31.0573C56.6224 30.8072 56.2833 30.6667 55.9296 30.6667H54.5963C54.5963 30.3131 54.7368 29.974 54.9868 29.7239C55.2369 29.4739 55.576 29.3334 55.9296 29.3334Z" fill="#FD4A18"/>
<path d="M31.3428 20.2267C30.4894 19.6534 30.9961 19.7334 17.0094 25.3334H6.59609C4.94348 25.3509 3.35628 25.9816 2.14242 27.1032C0.928553 28.2248 0.174568 29.7573 0.0267369 31.4033C-0.121094 33.0494 0.347767 34.6917 1.34236 36.0116C2.33696 37.3316 3.78637 38.235 5.40942 38.5467L6.59609 48.16C6.63539 48.4852 6.79303 48.7846 7.03895 49.001C7.28487 49.2174 7.60185 49.3357 7.92942 49.3334H13.2628C13.4522 49.3347 13.6397 49.2957 13.8129 49.2189C13.986 49.1422 14.1408 49.0294 14.267 48.8881C14.3931 48.7468 14.4877 48.5802 14.5445 48.3995C14.6012 48.2188 14.6188 48.0281 14.5961 47.84L13.4361 38.6667H17.0094C31.3694 44.4134 30.2228 44 30.5961 44C30.9497 44 31.2888 43.8596 31.5389 43.6095C31.7889 43.3595 31.9294 43.0203 31.9294 42.6667C31.9294 19.64 32.1828 20.8 31.3428 20.2267ZM15.9294 36H7.92942V28H15.9294V36ZM5.26275 28.2267V35.7734C4.48143 35.4985 3.8047 34.9879 3.32597 34.312C2.84725 33.6361 2.59014 32.8283 2.59014 32C2.59014 31.1718 2.84725 30.3639 3.32597 29.6881C3.8047 29.0122 4.48143 28.5016 5.26275 28.2267ZM11.7561 46.6667H9.08942L8.08942 38.6667H10.7561L11.7561 46.6667ZM29.2628 40.6934L18.5961 36.4267V27.5734L29.2628 23.3067V40.6934Z" fill="#FD4A18"/>
<path d="M35.9294 18.6666C36.9027 18.6666 36.5427 18.8266 42.3694 10.0666C42.5264 9.77387 42.5685 9.43303 42.4874 9.11087C42.4063 8.7887 42.2078 8.50842 41.9309 8.32491C41.654 8.1414 41.3185 8.06788 40.9902 8.11876C40.6619 8.16963 40.3644 8.34124 40.156 8.59996L34.8227 16.6C34.6906 16.8005 34.6152 17.033 34.6043 17.2728C34.5934 17.5127 34.6475 17.7511 34.7608 17.9627C34.8742 18.1744 35.0426 18.3515 35.2483 18.4754C35.4539 18.5993 35.6893 18.6654 35.9294 18.6666Z" fill="#FD4A18"/>
<path d="M37.0358 45.9335C36.8274 45.6747 36.5299 45.5031 36.2016 45.4523C35.8733 45.4014 35.5378 45.4749 35.2609 45.6584C34.984 45.8419 34.7855 46.1222 34.7044 46.4444C34.6233 46.7665 34.6654 47.1074 34.8224 47.4001C40.6224 56.1068 40.3024 56.0001 41.2624 56.0001C41.5025 55.9989 41.7379 55.9328 41.9435 55.8089C42.1492 55.685 42.3176 55.5079 42.431 55.2962C42.5443 55.0845 42.5984 54.8462 42.5875 54.6063C42.5766 54.3665 42.5012 54.134 42.3691 53.9335L37.0358 45.9335Z" fill="#FD4A18"/>
<path d="M41.263 30.6665H35.9297C35.5761 30.6665 35.2369 30.807 34.9869 31.057C34.7368 31.3071 34.5964 31.6462 34.5964 31.9998C34.5964 32.3535 34.7368 32.6926 34.9869 32.9426C35.2369 33.1927 35.5761 33.3332 35.9297 33.3332H41.263C41.6167 33.3332 41.9558 33.1927 42.2059 32.9426C42.4559 32.6926 42.5964 32.3535 42.5964 31.9998C42.5964 31.6462 42.4559 31.3071 42.2059 31.057C41.9558 30.807 41.6167 30.6665 41.263 30.6665Z" fill="#FD4A18"/>
</svg>
