<svg width="64" height="64" viewBox="0 0 64 64" fill="none" xmlns="http://www.w3.org/2000/svg">
<path d="M60 53.3334H4C2.93913 53.3334 1.92172 52.912 1.17157 52.1618C0.421427 51.4117 0 50.3943 0 49.3334L0 14.6667C0 13.6059 0.421427 12.5885 1.17157 11.8383C1.92172 11.0882 2.93913 10.6667 4 10.6667H8V13.3334H4C3.64638 13.3334 3.30724 13.4739 3.05719 13.7239C2.80714 13.974 2.66667 14.3131 2.66667 14.6667V49.3334C2.66667 49.687 2.80714 50.0262 3.05719 50.2762C3.30724 50.5263 3.64638 50.6667 4 50.6667H60C60.3536 50.6667 60.6928 50.5263 60.9428 50.2762C61.1929 50.0262 61.3333 49.687 61.3333 49.3334V14.6667C61.3333 14.3131 61.1929 13.974 60.9428 13.7239C60.6928 13.4739 60.3536 13.3334 60 13.3334H56V10.6667H60C61.0609 10.6667 62.0783 11.0882 62.8284 11.8383C63.5786 12.5885 64 13.6059 64 14.6667V49.3334C64 50.3943 63.5786 51.4117 62.8284 52.1618C62.0783 52.912 61.0609 53.3334 60 53.3334Z" fill="#FD4A18"/>
<path d="M20 52H22.6667V57.3333H20V52Z" fill="#FD4A18"/>
<path d="M17.3333 62.6667H14.6667V60C14.6667 58.9391 15.0881 57.9217 15.8382 57.1716C16.5884 56.4214 17.6058 56 18.6667 56H32V58.6667H18.6667C18.313 58.6667 17.9739 58.8071 17.7238 59.0572C17.4738 59.3072 17.3333 59.6464 17.3333 60V62.6667Z" fill="#FD4A18"/>
<path d="M41.3333 52H44V57.3333H41.3333V52Z" fill="#FD4A18"/>
<path d="M49.3333 62.6667H46.6667V60C46.6667 59.6464 46.5262 59.3072 46.2761 59.0572C46.0261 58.8071 45.6869 58.6667 45.3333 58.6667H38.6667V56H45.3333C46.3942 56 47.4116 56.4214 48.1617 57.1716C48.9119 57.9217 49.3333 58.9391 49.3333 60V62.6667Z" fill="#FD4A18"/>
<path d="M12 61.3333H52V63.9999H12V61.3333Z" fill="#FD4A18"/>
<path d="M53.3333 48H10.6667C9.60579 48 8.58837 47.5786 7.83823 46.8284C7.08808 46.0783 6.66666 45.0609 6.66666 44V12C6.66666 10.9391 7.08808 9.92172 7.83823 9.17157C8.58837 8.42143 9.60579 8 10.6667 8H24V10.6667H10.6667C10.313 10.6667 9.9739 10.8071 9.72385 11.0572C9.4738 11.3072 9.33332 11.6464 9.33332 12V44C9.33332 44.3536 9.4738 44.6928 9.72385 44.9428C9.9739 45.1929 10.313 45.3333 10.6667 45.3333H53.3333C53.6869 45.3333 54.0261 45.1929 54.2761 44.9428C54.5262 44.6928 54.6667 44.3536 54.6667 44V12C54.6667 11.6464 54.5262 11.3072 54.2761 11.0572C54.0261 10.8071 53.6869 10.6667 53.3333 10.6667H40V8H53.3333C54.3942 8 55.4116 8.42143 56.1617 9.17157C56.9119 9.92172 57.3333 10.9391 57.3333 12V44C57.3333 45.0609 56.9119 46.0783 56.1617 46.8284C55.4116 47.5786 54.3942 48 53.3333 48Z" fill="#FD4A18"/>
<path d="M1.33334 40H8.00001V42.6667H1.33334V40Z" fill="#FD4A18"/>
<path d="M56 40H62.6667V42.6667H56V40Z" fill="#FD4A18"/>
<path d="M38.4189 35.4414L36.2482 33.892L42.4069 25.2694L32.0002 7.92402L21.6002 25.2694L27.7589 33.892L25.5882 35.4414L18.9215 26.108C18.7695 25.896 18.6831 25.644 18.6729 25.3833C18.6627 25.1226 18.7292 24.8646 18.8642 24.6414L30.8642 4.64136C30.9916 4.456 31.1622 4.30443 31.3613 4.19972C31.5604 4.095 31.7819 4.04028 32.0069 4.04028C32.2318 4.04028 32.4534 4.095 32.6524 4.19972C32.8515 4.30443 33.0221 4.456 33.1495 4.64136L45.1495 24.6414C45.2845 24.8646 45.351 25.1226 45.3409 25.3833C45.3307 25.644 45.2442 25.896 45.0922 26.108L38.4189 35.4414Z" fill="#FD4A18"/>
<path d="M41.3333 41.3333H22.6667C22.3131 41.3333 21.9739 41.1928 21.7239 40.9427C21.4738 40.6927 21.3333 40.3535 21.3333 39.9999V34.6666C21.3333 34.313 21.4738 33.9738 21.7239 33.7238C21.9739 33.4737 22.3131 33.3333 22.6667 33.3333H41.3333C41.687 33.3333 42.0261 33.4737 42.2762 33.7238C42.5262 33.9738 42.6667 34.313 42.6667 34.6666V39.9999C42.6667 40.3535 42.5262 40.6927 42.2762 40.9427C42.0261 41.1928 41.687 41.3333 41.3333 41.3333ZM24 38.6666H40V35.9999H24V38.6666Z" fill="#FD4A18"/>
<path d="M24 40H26.6667V46.6667H24V40Z" fill="#FD4A18"/>
<path d="M37.3333 40H40V46.6667H37.3333V40Z" fill="#FD4A18"/>
<path d="M32 30.6666C31.4726 30.6666 30.957 30.5102 30.5185 30.2172C30.08 29.9242 29.7382 29.5077 29.5363 29.0204C29.3345 28.5331 29.2817 27.997 29.3846 27.4797C29.4875 26.9624 29.7415 26.4872 30.1144 26.1143C30.4873 25.7414 30.9625 25.4874 31.4798 25.3845C31.9971 25.2816 32.5332 25.3344 33.0205 25.5362C33.5078 25.7381 33.9242 26.0799 34.2173 26.5184C34.5103 26.9569 34.6667 27.4725 34.6667 27.9999C34.6667 28.7072 34.3857 29.3854 33.8856 29.8855C33.3855 30.3856 32.7073 30.6666 32 30.6666Z" fill="#FD4A18"/>
<path d="M30.6667 5.33325H33.3333V26.6666H30.6667V5.33325Z" fill="#FD4A18"/>
<path d="M50.6667 18.6667H48C48 14.4232 46.3143 10.3535 43.3137 7.35296C40.3131 4.35238 36.2435 2.66667 32 2.66667C27.7565 2.66667 23.6869 4.35238 20.6863 7.35296C17.6857 10.3535 16 14.4232 16 18.6667H13.3333C13.3333 13.716 15.3 8.96802 18.8007 5.46734C22.3014 1.96666 27.0493 0 32 0C36.9507 0 41.6987 1.96666 45.1993 5.46734C48.7 8.96802 50.6667 13.716 50.6667 18.6667Z" fill="#FD4A18"/>
<path d="M14.6667 25.3333C13.8755 25.3333 13.1022 25.0987 12.4444 24.6591C11.7866 24.2196 11.2739 23.5949 10.9711 22.864C10.6684 22.1331 10.5892 21.3288 10.7435 20.5529C10.8979 19.777 11.2788 19.0642 11.8382 18.5048C12.3976 17.9454 13.1104 17.5645 13.8863 17.4101C14.6622 17.2558 15.4665 17.335 16.1974 17.6377C16.9283 17.9405 17.553 18.4532 17.9925 19.111C18.4321 19.7688 18.6667 20.5421 18.6667 21.3333C18.6667 22.3941 18.2452 23.4115 17.4951 24.1617C16.7449 24.9118 15.7275 25.3333 14.6667 25.3333ZM14.6667 19.9999C14.403 19.9999 14.1452 20.0781 13.9259 20.2246C13.7066 20.3711 13.5357 20.5794 13.4348 20.823C13.3339 21.0666 13.3075 21.3347 13.3589 21.5934C13.4104 21.852 13.5374 22.0896 13.7239 22.2761C13.9103 22.4625 14.1479 22.5895 14.4065 22.641C14.6652 22.6924 14.9333 22.666 15.1769 22.5651C15.4205 22.4642 15.6288 22.2933 15.7753 22.074C15.9218 21.8547 16 21.597 16 21.3333C16 20.9796 15.8595 20.6405 15.6095 20.3904C15.3594 20.1404 15.0203 19.9999 14.6667 19.9999Z" fill="#FD4A18"/>
<path d="M49.3333 25.3333C48.5422 25.3333 47.7689 25.0987 47.1111 24.6591C46.4533 24.2196 45.9406 23.5949 45.6378 22.864C45.3351 22.1331 45.2559 21.3288 45.4102 20.5529C45.5645 19.777 45.9455 19.0642 46.5049 18.5048C47.0643 17.9454 47.7771 17.5645 48.553 17.4101C49.3289 17.2558 50.1332 17.335 50.8641 17.6377C51.595 17.9405 52.2197 18.4532 52.6592 19.111C53.0987 19.7688 53.3333 20.5421 53.3333 21.3333C53.3333 22.3941 52.9119 23.4115 52.1618 24.1617C51.4116 24.9118 50.3942 25.3333 49.3333 25.3333ZM49.3333 19.9999C49.0696 19.9999 48.8119 20.0781 48.5926 20.2246C48.3733 20.3711 48.2024 20.5794 48.1015 20.823C48.0006 21.0666 47.9742 21.3347 48.0256 21.5934C48.0771 21.852 48.2041 22.0896 48.3905 22.2761C48.577 22.4625 48.8146 22.5895 49.0732 22.641C49.3319 22.6924 49.6 22.666 49.8436 22.5651C50.0872 22.4642 50.2955 22.2933 50.442 22.074C50.5885 21.8547 50.6667 21.597 50.6667 21.3333C50.6667 20.9796 50.5262 20.6405 50.2762 20.3904C50.0261 20.1404 49.687 19.9999 49.3333 19.9999Z" fill="#FD4A18"/>
<path d="M12 40H14.6667V42.6667H12V40Z" fill="#FD4A18"/>
<path d="M12 34.6667H14.6667V37.3334H12V34.6667Z" fill="#FD4A18"/>
<path d="M17.3333 40H20V42.6667H17.3333V40Z" fill="#FD4A18"/>
<path d="M44 40H46.6667V42.6667H44V40Z" fill="#FD4A18"/>
<path d="M49.3333 40H52V42.6667H49.3333V40Z" fill="#FD4A18"/>
<path d="M49.3333 34.6667H52V37.3334H49.3333V34.6667Z" fill="#FD4A18"/>
</svg>
