<svg width="64" height="64" viewBox="0 0 64 64" fill="none" xmlns="http://www.w3.org/2000/svg">
<path d="M57.3333 64H6.66667C4.89921 63.9979 3.20474 63.2948 1.95496 62.045C0.705176 60.7953 0.00211714 59.1008 0 57.3333C0 56.9797 0.140476 56.6406 0.390524 56.3905C0.640573 56.1405 0.979711 56 1.33333 56H62.6667C63.0203 56 63.3594 56.1405 63.6095 56.3905C63.8595 56.6406 64 56.9797 64 57.3333C63.9979 59.1008 63.2948 60.7953 62.045 62.045C60.7953 63.2948 59.1008 63.9979 57.3333 64ZM2.89467 58.6667C3.17144 59.446 3.68253 60.1207 4.35785 60.5981C5.03316 61.0755 5.83963 61.3323 6.66667 61.3333H57.3333C58.1604 61.3323 58.9668 61.0755 59.6422 60.5981C60.3175 60.1207 60.8286 59.446 61.1053 58.6667H2.89467Z" fill="#FD4A18"/>
<path d="M25.3333 57.3333H38.6666V59.9999H25.3333V57.3333Z" fill="#FD4A18"/>
<path d="M61.3333 57.3334H58.6667V18.6667C58.6667 18.3131 58.5262 17.974 58.2761 17.7239C58.0261 17.4739 57.687 17.3334 57.3333 17.3334H52V14.6667H57.3333C58.3942 14.6667 59.4116 15.0882 60.1618 15.8383C60.9119 16.5885 61.3333 17.6059 61.3333 18.6667V57.3334Z" fill="#FD4A18"/>
<path d="M5.33332 57.3334H2.66666V18.6667C2.66666 17.6059 3.08808 16.5885 3.83823 15.8383C4.58838 15.0882 5.60579 14.6667 6.66666 14.6667H12V17.3334H6.66666C6.31303 17.3334 5.9739 17.4739 5.72385 17.7239C5.4738 17.974 5.33332 18.3131 5.33332 18.6667V57.3334Z" fill="#FD4A18"/>
<path d="M8 48H57.3333V50.6667H8V48Z" fill="#FD4A18"/>
<path d="M13.3333 49.3333H10.6667V4C10.6667 2.93913 11.0881 1.92172 11.8382 1.17157C12.5884 0.421427 13.6058 0 14.6667 0L49.3333 0C50.3942 0 51.4116 0.421427 52.1617 1.17157C52.9119 1.92172 53.3333 2.93913 53.3333 4V8H50.6667V4C50.6667 3.64638 50.5262 3.30724 50.2761 3.05719C50.0261 2.80714 49.6869 2.66667 49.3333 2.66667H14.6667C14.313 2.66667 13.9739 2.80714 13.7238 3.05719C13.4738 3.30724 13.3333 3.64638 13.3333 4V49.3333Z" fill="#FD4A18"/>
<path d="M12 10.6667H48V13.3334H12V10.6667Z" fill="#FD4A18"/>
<path d="M35.5306 33.568C35.177 33.5679 34.838 33.4274 34.588 33.1773L30.8226 29.4133C30.5727 29.1633 30.4323 28.8242 30.4323 28.4707C30.4323 28.1171 30.5727 27.7781 30.8226 27.528L57.1786 1.17068C57.9397 0.443433 58.9519 0.0375977 60.0046 0.0375977C61.0573 0.0375977 62.0695 0.443433 62.8306 1.17068C63.5789 1.92058 63.9991 2.93667 63.9991 3.99602C63.9991 5.05537 63.5789 6.07146 62.8306 6.82135L36.4733 33.1773C36.2233 33.4274 35.8842 33.5679 35.5306 33.568ZM33.6506 28.4707L35.5306 30.3493L60.944 4.93335C61.1923 4.68353 61.3317 4.3456 61.3317 3.99335C61.3317 3.6411 61.1923 3.30317 60.944 3.05335C60.6911 2.81138 60.3546 2.67633 60.0046 2.67633C59.6547 2.67633 59.3182 2.81138 59.0653 3.05335L33.6506 28.4707Z" fill="#FD4A18"/>
<path d="M28 37.3333C27.7727 37.3334 27.5491 37.2754 27.3505 37.1648C27.152 37.0542 26.985 36.8946 26.8654 36.7013C26.7458 36.508 26.6777 36.2874 26.6674 36.0603C26.6571 35.8332 26.705 35.6073 26.8066 35.404L30.572 27.8733L32.9573 29.0666L30.9813 33.0186L34.9333 31.0413L36.1333 33.4266L28.596 37.2C28.4103 37.2899 28.2063 37.3356 28 37.3333Z" fill="#FD4A18"/>
<path d="M49.6491 10.5854L51.5347 8.69983L55.3003 12.4654L53.4147 14.351L49.6491 10.5854Z" fill="#FD4A18"/>
<path d="M50.6667 16H53.3334V49.3333H50.6667V16Z" fill="#FD4A18"/>
<path d="M16 5.33325H18.6667V7.99992H16V5.33325Z" fill="#FD4A18"/>
<path d="M21.3333 5.33325H24V7.99992H21.3333V5.33325Z" fill="#FD4A18"/>
<path d="M26.6667 5.33325H29.3334V7.99992H26.6667V5.33325Z" fill="#FD4A18"/>
<path d="M22.6667 29.3333C21.3481 29.3333 20.0592 28.9423 18.9629 28.2098C17.8665 27.4773 17.0121 26.4361 16.5075 25.2179C16.0029 23.9997 15.8709 22.6593 16.1281 21.3661C16.3853 20.0729 17.0203 18.885 17.9526 17.9526C18.885 17.0203 20.0729 16.3853 21.3661 16.1281C22.6593 15.8709 23.9997 16.0029 25.2179 16.5075C26.4361 17.0121 27.4773 17.8665 28.2098 18.9629C28.9423 20.0592 29.3333 21.3481 29.3333 22.6667C29.3312 24.4341 28.6282 26.1286 27.3784 27.3784C26.1286 28.6282 24.4341 29.3312 22.6667 29.3333ZM22.6667 18.6667C21.8755 18.6667 21.1022 18.9013 20.4444 19.3408C19.7866 19.7803 19.2739 20.405 18.9712 21.1359C18.6684 21.8668 18.5892 22.6711 18.7435 23.447C18.8979 24.223 19.2788 24.9357 19.8382 25.4951C20.3977 26.0545 21.1104 26.4355 21.8863 26.5898C22.6622 26.7442 23.4665 26.6649 24.1974 26.3622C24.9283 26.0594 25.553 25.5467 25.9925 24.8889C26.4321 24.2312 26.6667 23.4578 26.6667 22.6667C26.6667 21.6058 26.2452 20.5884 25.4951 19.8382C24.745 19.0881 23.7275 18.6667 22.6667 18.6667Z" fill="#FD4A18"/>
<path d="M25.7233 26.2756L27.6089 24.39L31.6102 28.3913L29.7246 30.2769L25.7233 26.2756Z" fill="#FD4A18"/>
<path d="M42.6666 42.6667H22.6666C22.313 42.6667 21.9739 42.5262 21.7238 42.2761C21.4738 42.0261 21.3333 41.687 21.3333 41.3333V28H24V40H39.448L33.7213 34.2667L35.6066 32.3813L43.6066 40.3813C43.7961 40.5671 43.9259 40.8052 43.9792 41.0652C44.0326 41.3252 44.0072 41.5951 43.9062 41.8405C43.8053 42.086 43.6334 42.2957 43.4126 42.4429C43.1917 42.59 42.932 42.668 42.6666 42.6667Z" fill="#FD4A18"/>
<path d="M45.3333 40H48V42.6667H45.3333V40Z" fill="#FD4A18"/>
<path d="M16 40H18.6667V42.6667H16V40Z" fill="#FD4A18"/>
</svg>
